<?xml version="1.0" standalone="no"?>
<!DOCTYPE svg PUBLIC "-//W3C//DTD SVG 20010904//EN"
 "http://www.w3.org/TR/2001/REC-SVG-20010904/DTD/svg10.dtd">
<svg version="1.0" xmlns="http://www.w3.org/2000/svg"
 width="570.000000pt" height="570.000000pt" viewBox="0 0 570.000000 570.000000"
 preserveAspectRatio="xMidYMid meet">
<metadata>
Created by potrace 1.11, written by Peter Selinger 2001-2013
</metadata>
<g transform="translate(0.000000,570.000000) scale(0.100000,-0.100000)"
fill="#000000" stroke="none">
<path d="M1218 4563 c-1 -5 -39 -35 -83 -67 -44 -33 -81 -63 -83 -68 -2 -4 -8
-8 -13 -8 -13 0 -44 -30 -56 -55 -8 -16 -31 -108 -48 -195 -2 -8 -4 -15 -5
-15 -1 0 -3 -7 -5 -15 -2 -8 -17 -73 -35 -145 -17 -71 -33 -139 -35 -150 -2
-11 -4 -20 -5 -20 -1 0 -3 -7 -5 -15 -1 -8 -13 -55 -25 -105 -12 -49 -23 -99
-26 -110 -2 -11 -20 -90 -40 -175 -19 -85 -37 -162 -39 -170 -2 -8 -10 -42
-18 -74 -9 -33 -14 -63 -11 -67 2 -4 0 -10 -6 -14 -5 -3 -10 -17 -10 -31 0
-20 5 -24 33 -25 17 -1 37 0 42 1 6 1 16 2 23 2 82 -6 292 -5 292 1 0 5 4 6 9
3 5 -4 12 7 15 24 14 71 20 98 28 120 6 18 36 142 44 185 3 17 8 32 10 35 3 2
100 5 215 7 l211 2 25 25 c14 14 29 26 34 26 4 0 14 6 21 13 7 6 36 28 63 47
62 43 99 79 102 100 1 8 18 78 38 155 64 248 73 289 69 297 -3 5 -1 8 5 8 5 0
9 8 9 18 -1 9 7 44 16 77 20 67 37 149 38 181 0 20 -20 51 -54 83 -10 8 -18
19 -18 23 0 4 -16 25 -35 45 -19 20 -35 41 -35 45 0 10 -647 11 -652 1z m307
-386 c20 -4 27 -22 16 -42 -7 -12 -9 -20 -16 -65 -3 -19 -10 -46 -15 -60 -5
-14 -12 -41 -16 -60 -8 -38 -12 -53 -18 -72 -2 -7 -7 -28 -11 -45 -8 -36 -3
-34 -118 -37 -38 0 -71 2 -73 6 -4 7 29 186 36 196 2 1 3 10 4 20 1 9 4 22 7
27 6 9 13 37 24 95 3 14 11 30 18 35 13 9 114 10 162 2z"/>
<path d="M2189 4565 c-2 0 -36 -142 -44 -185 -3 -14 -13 -54 -21 -89 -9 -36
-17 -72 -19 -80 -8 -35 -90 -375 -94 -388 -1 -2 -1 -4 -2 -5 -2 -7 -8 -36 -14
-68 -3 -19 -18 -82 -32 -140 -14 -58 -27 -116 -30 -129 -2 -14 -7 -29 -10 -34
-3 -5 -7 -27 -8 -48 -2 -21 -7 -44 -11 -51 -4 -7 -9 -21 -11 -33 -3 -21 -10
-57 -13 -65 -10 -25 48 -128 63 -113 4 3 7 1 7 -5 0 -11 28 -47 67 -88 10 -10
100 -12 410 -12 364 1 437 5 431 26 -2 7 8 51 38 162 9 30 18 69 21 85 3 17 8
37 12 45 4 8 7 26 7 40 l-1 25 -115 2 c-131 3 -169 3 -190 2 -8 0 -58 -1 -110
0 -210 1 -204 0 -191 34 5 12 9 24 9 27 0 3 8 41 18 85 10 44 17 84 16 89 -2
4 1 13 7 20 5 6 15 38 22 71 7 33 13 62 14 65 0 3 14 57 29 120 15 63 30 122
32 130 2 8 10 42 18 76 8 34 17 72 20 85 2 13 14 60 26 104 11 44 22 89 25
100 2 11 11 43 18 71 8 29 12 56 8 60 -3 5 -95 9 -204 9 -108 0 -197 0 -198 0z"/>
<path d="M3325 4549 c-4 -11 -4 -23 -1 -26 3 -4 1 -12 -5 -20 -6 -7 -9 -13 -5
-13 3 0 1 -12 -5 -27 -6 -16 -12 -35 -14 -43 -2 -8 -13 -55 -25 -105 -12 -49
-24 -100 -26 -112 -2 -12 -9 -34 -14 -48 -5 -14 -8 -25 -5 -25 2 0 -2 -18 -10
-39 -7 -22 -11 -42 -8 -45 4 -3 1 -6 -6 -6 -7 0 -9 -5 -6 -10 4 -6 0 -34 -9
-63 -8 -28 -17 -65 -20 -82 -2 -16 -5 -31 -6 -32 -2 -2 -3 -6 -5 -10 -1 -5 -5
-19 -9 -33 -4 -14 -9 -38 -11 -55 -2 -16 -5 -32 -6 -35 -1 -3 -3 -9 -4 -15 -2
-5 -4 -12 -5 -15 -1 -3 -3 -12 -5 -20 -1 -8 -13 -53 -24 -100 -12 -47 -24 -96
-27 -110 -2 -14 -9 -36 -14 -50 -4 -14 -12 -43 -16 -65 -4 -22 -8 -44 -10 -50
-10 -44 -12 -70 -5 -79 5 -6 11 -15 12 -21 2 -5 22 -30 45 -55 24 -25 55 -59
71 -76 l28 -31 285 1 c157 1 290 4 297 9 6 4 13 1 16 -5 3 -9 11 -7 28 8 13
11 60 44 104 74 44 30 86 60 93 67 7 7 17 13 22 13 5 0 14 17 20 38 11 37 78
300 85 336 3 10 11 42 19 70 15 54 27 117 24 126 -1 3 4 14 10 26 6 11 13 32
16 45 10 50 15 71 21 89 3 10 8 27 10 37 2 10 13 59 25 108 12 50 23 99 24
110 1 12 5 25 8 30 3 6 9 27 12 48 3 21 10 46 15 55 5 9 11 33 14 52 3 19 12
64 21 100 9 36 19 73 21 83 4 16 -11 17 -202 17 -174 0 -204 -2 -200 -14 3 -8
2 -16 -3 -18 -4 -2 -11 -19 -14 -38 -3 -19 -13 -62 -22 -95 -9 -33 -17 -69
-19 -80 -1 -11 -5 -27 -9 -36 -4 -9 -8 -27 -10 -40 -2 -13 -6 -31 -9 -39 -5
-14 -31 -114 -42 -167 -9 -39 -12 -55 -44 -176 -17 -65 -29 -122 -26 -128 4
-5 1 -9 -4 -9 -6 0 -10 -3 -9 -7 1 -7 -4 -37 -18 -95 -1 -5 -2 -9 -4 -10 -1
-2 -4 -16 -6 -33 -3 -16 -9 -41 -13 -55 -5 -14 -15 -46 -22 -71 l-12 -46 -91
1 c-90 1 -122 9 -110 27 3 5 7 21 10 34 2 14 6 35 8 48 2 12 9 40 14 62 6 22
14 56 17 75 3 19 11 53 17 75 6 22 12 53 14 68 2 16 6 33 9 38 4 5 8 17 10 26
1 10 17 81 33 158 44 199 44 198 45 220 1 11 5 22 9 25 7 5 12 32 23 110 1 14
4 25 5 25 1 0 3 7 5 15 2 8 6 26 9 40 6 27 16 76 19 94 1 8 -56 12 -195 14
-192 2 -197 2 -203 -19z"/>
<path d="M4704 4555 c-10 -5 -23 -14 -28 -18 -181 -135 -221 -171 -228 -207
-3 -14 -18 -81 -33 -150 -15 -69 -29 -135 -30 -147 -2 -12 -6 -26 -9 -31 -6
-11 -28 -131 -27 -155 0 -18 44 -80 110 -156 l30 -35 205 -1 c129 0 206 -4
207 -10 1 -25 -57 -225 -66 -226 -5 0 -44 -2 -85 -3 -84 -3 -115 7 -105 32 4
9 9 35 12 57 l5 41 -39 3 c-107 10 -364 1 -369 -13 -2 -6 -5 -23 -8 -38 -3
-15 -7 -31 -10 -36 -3 -5 -8 -22 -10 -38 -3 -16 -13 -60 -22 -99 -24 -108 -24
-109 33 -172 28 -32 63 -71 76 -88 l25 -30 304 -1 c182 0 311 3 323 9 30 15
168 118 188 140 9 11 17 17 17 12 0 -4 7 -1 16 6 16 13 33 48 40 84 8 43 36
161 41 175 8 21 13 40 18 75 5 34 9 53 18 75 7 18 16 62 23 112 5 34 2 42 -35
78 -22 22 -37 40 -34 40 4 0 -2 9 -14 19 -11 10 -28 29 -39 42 -32 40 -60 45
-247 44 -146 -2 -180 1 -184 12 -3 8 2 40 11 71 19 63 24 87 25 119 1 26 42
41 91 33 19 -3 49 -3 66 1 18 3 38 3 45 -1 13 -9 22 -40 11 -40 -4 0 -8 -20
-10 -45 l-2 -46 182 2 c101 1 188 4 195 6 7 3 13 12 13 20 0 8 5 24 12 36 7
12 13 31 15 42 2 11 8 21 13 23 5 2 7 9 4 16 -2 6 2 30 10 53 8 23 12 44 9 47
-4 3 -2 6 4 6 14 0 23 61 12 82 -5 9 -46 54 -92 100 l-83 83 -291 0 c-176 0
-298 -4 -309 -10z"/>
<path d="M387 2663 c-4 -3 -19 -6 -34 -7 -26 -1 -28 -5 -65 -151 -20 -82 -39
-161 -42 -175 -2 -14 -10 -49 -16 -78 -7 -30 -13 -61 -15 -70 -2 -9 -4 -18 -5
-19 -2 -2 -3 -6 -4 -10 -8 -32 -17 -72 -22 -93 -8 -39 -12 -55 -14 -55 -2 0
-5 -15 -13 -60 -7 -35 -9 -43 -36 -155 -11 -47 -25 -107 -31 -135 -7 -27 -14
-58 -16 -67 -4 -17 -7 -31 -19 -88 -3 -14 -7 -34 -10 -45 -2 -11 -8 -33 -13
-50 -5 -16 -7 -36 -5 -42 3 -7 -1 -13 -8 -13 -7 0 -9 -3 -6 -7 4 -3 2 -12 -4
-19 -7 -9 0 -21 26 -47 19 -19 35 -37 35 -40 0 -4 20 -28 45 -54 24 -26 45
-51 45 -55 0 -5 142 -8 315 -8 271 0 316 2 321 15 4 8 10 12 15 9 5 -3 9 -1 9
4 0 5 27 28 60 52 33 24 60 48 60 53 0 6 3 8 6 4 6 -6 17 1 63 44 20 18 33 45
45 95 9 38 17 72 17 76 0 4 9 38 20 75 11 38 22 84 25 103 3 19 9 37 13 40 4
3 8 14 8 25 1 11 14 67 29 125 14 58 28 114 29 125 2 11 4 21 5 23 2 1 4 7 5
12 1 6 3 11 5 13 2 3 10 36 14 62 2 11 15 70 31 130 15 61 29 117 30 125 2 8
4 17 5 20 1 3 2 9 1 14 -1 4 2 13 7 20 5 6 14 38 21 71 7 33 16 67 19 75 8 24
13 43 16 71 1 14 6 31 10 37 4 7 4 13 -1 13 -23 5 -181 10 -233 8 -8 0 -37 0
-65 0 -110 2 -106 4 -124 -74 -10 -38 -18 -74 -20 -80 -6 -17 -8 -27 -22 -90
-7 -33 -14 -64 -15 -70 -2 -5 -6 -23 -9 -40 -3 -16 -12 -52 -20 -80 -14 -49
-21 -81 -32 -137 -3 -16 -8 -28 -12 -28 -4 0 -7 -8 -8 -17 -4 -48 -9 -79 -16
-91 -5 -6 -5 -16 -2 -22 3 -5 1 -10 -4 -10 -6 0 -10 -3 -9 -7 3 -13 -20 -121
-34 -163 -7 -20 -49 -190 -52 -212 -4 -30 -15 -33 -121 -33 -90 0 -105 2 -108
17 -3 9 -2 20 2 23 3 4 7 11 7 16 1 5 2 10 3 12 2 1 4 11 6 22 2 11 14 58 25
105 27 109 25 102 33 125 3 11 8 31 11 45 5 34 26 112 33 130 4 8 8 22 9 30 3
25 11 58 54 220 22 85 42 164 44 175 3 11 5 21 7 23 1 1 2 5 4 10 10 37 15 61
19 84 3 15 7 32 10 37 3 5 8 25 11 45 5 28 3 36 -9 37 -65 2 -128 1 -132 -4
-3 -2 -20 -1 -39 3 -19 4 -36 5 -39 3 -7 -7 -101 -7 -113 0 -6 4 -13 4 -16 0z"/>
<path d="M3687 2664 c-3 -4 -40 -6 -82 -7 -46 0 -78 -5 -80 -11 -2 -6 -6 -24
-9 -41 -3 -16 -10 -48 -16 -70 -6 -22 -13 -51 -16 -65 -13 -70 -16 -80 -23
-80 -4 0 -7 -8 -8 -17 -1 -10 -5 -38 -8 -63 -4 -25 -7 -51 -8 -57 0 -7 -3 -13
-6 -13 -4 0 -8 -10 -9 -22 -1 -13 -13 -66 -27 -118 -34 -121 -44 -173 -39
-182 3 -5 1 -8 -4 -8 -6 0 -13 -15 -16 -32 -7 -39 -11 -55 -31 -133 -9 -33
-18 -71 -21 -84 -3 -12 -12 -53 -21 -90 -8 -36 -17 -73 -18 -81 -1 -8 -5 -22
-8 -30 -3 -8 -13 -49 -22 -90 -10 -41 -24 -99 -32 -129 -8 -29 -16 -68 -19
-87 l-4 -34 199 0 199 0 8 33 c11 47 11 46 33 127 11 41 29 111 41 155 11 44
23 87 27 95 7 17 12 36 17 65 2 11 7 28 10 37 4 9 9 25 10 35 3 21 57 30 147
25 l57 -4 -9 -36 c-4 -20 -11 -52 -14 -71 -3 -19 -7 -37 -9 -40 -2 -3 -7 -24
-10 -46 -4 -22 -11 -54 -17 -71 -5 -18 -9 -36 -8 -40 1 -5 0 -11 -1 -14 -1 -3
-3 -12 -5 -20 -2 -8 -6 -26 -9 -40 -16 -68 -23 -110 -18 -110 2 0 0 -6 -5 -12
-5 -7 -10 -25 -12 -40 l-2 -28 100 0 c71 0 102 4 108 13 4 7 24 24 43 37 19
14 69 51 110 84 41 33 76 61 78 62 4 2 60 227 64 256 2 13 7 29 11 36 5 6 5
12 1 12 -3 0 -2 6 3 13 17 22 16 77 -1 83 -9 3 -16 10 -16 15 0 4 -20 29 -45
56 -25 26 -45 51 -45 55 0 4 -6 8 -14 8 -21 0 -12 49 12 66 12 8 28 21 36 29
8 8 18 15 23 15 4 0 17 11 27 25 10 14 23 25 28 25 15 0 118 102 112 111 -3 5
-1 9 4 9 5 0 9 6 9 13 1 15 5 38 33 162 37 162 36 164 -15 224 -25 29 -45 56
-45 59 0 4 -12 20 -26 36 -27 31 -60 37 -184 35 -80 -1 -72 -1 -148 1 -35 1
-65 0 -68 -3 -3 -3 -19 -1 -35 3 -16 5 -29 6 -29 2 0 -8 -139 -6 -147 2 -3 2
-15 1 -27 -4 -12 -4 -29 -4 -38 1 -8 5 -18 6 -21 3z m369 -396 c2 -3 0 -18 -6
-33 -6 -16 -8 -35 -5 -44 3 -8 3 -12 -1 -8 -5 4 -15 -16 -24 -45 l-16 -53 -94
-2 c-100 -1 -114 4 -101 41 5 12 8 33 7 48 -1 14 1 25 5 22 4 -2 9 14 13 36 6
37 8 39 49 42 58 4 167 2 173 -4z"/>
<path d="M1542 2652 c-63 -4 -57 7 -102 -187 -34 -148 -36 -159 -46 -215 -4
-19 -9 -39 -12 -45 -3 -5 -7 -16 -8 -25 -3 -25 -13 -73 -24 -109 -5 -19 -8
-37 -5 -39 3 -3 0 -11 -7 -19 -6 -7 -8 -16 -5 -20 4 -3 2 -13 -2 -22 -5 -9
-12 -33 -15 -55 -4 -21 -9 -43 -12 -48 -3 -5 -7 -19 -9 -31 -1 -12 -8 -44 -15
-72 -6 -27 -13 -62 -15 -77 -2 -15 -6 -31 -9 -36 -5 -8 -17 -61 -20 -92 -1 -9
-5 -20 -8 -26 -7 -10 -13 -36 -24 -104 -3 -19 -7 -37 -9 -40 -2 -3 -6 -24 -10
-47 -5 -38 -2 -46 28 -80 18 -21 48 -58 67 -83 19 -25 39 -48 45 -52 5 -4 193
-8 418 -8 l407 0 9 23 c5 13 11 37 14 53 3 16 9 47 15 69 11 41 23 98 26 125
1 9 5 20 8 25 3 6 9 27 13 48 5 28 4 37 -6 39 -8 1 -138 3 -289 4 -341 3 -320
1 -315 17 2 6 7 23 9 37 3 14 12 52 21 85 9 33 18 75 20 93 2 18 7 36 10 41 3
5 17 58 31 118 30 129 32 138 34 138 2 0 6 19 13 60 3 17 12 60 21 96 8 37 17
78 20 90 3 13 9 39 15 57 5 17 8 32 6 32 -2 0 2 18 10 40 8 22 12 40 10 40 -2
0 5 33 17 73 11 39 22 84 25 100 l4 27 -68 1 c-37 0 -104 1 -148 2 -44 1 -104
1 -133 -1z"/>
<path d="M2364 2652 c-18 -3 -24 -16 -40 -85 -9 -45 -19 -86 -20 -92 -22 -79
-43 -190 -37 -196 5 -5 71 -10 148 -11 l140 -3 -1 -40 c-1 -22 -4 -50 -8 -62
-3 -13 -8 -32 -11 -44 -2 -11 -6 -28 -9 -37 -3 -9 -8 -30 -11 -47 -9 -47 -10
-49 -18 -62 -5 -7 -6 -13 -3 -13 3 0 -1 -20 -8 -45 -10 -33 -11 -45 -3 -45 9
0 9 -2 0 -8 -10 -6 -48 -149 -58 -217 -2 -11 -4 -21 -5 -22 -2 -2 -4 -7 -5
-13 -1 -5 -3 -11 -4 -12 -2 -2 -4 -12 -6 -23 -6 -30 -35 -157 -41 -180 -3 -11
-7 -31 -10 -45 -3 -14 -7 -33 -10 -42 -3 -10 -7 -30 -10 -44 -3 -15 -9 -35
-15 -46 -7 -13 -6 -18 3 -18 9 0 9 -3 0 -12 -7 -7 -12 -25 -12 -40 l0 -28 195
0 c203 0 201 -1 209 42 2 7 6 31 10 53 4 22 12 51 16 65 5 14 12 36 14 50 3
14 10 42 15 63 5 20 7 37 4 37 -3 0 0 7 7 15 7 8 9 15 5 15 -4 0 -2 7 5 15 7
8 10 15 8 15 -5 0 2 30 27 130 2 8 4 15 5 15 1 0 3 9 5 20 2 11 8 35 13 53 6
18 11 33 10 35 0 1 5 21 11 45 7 23 9 47 6 52 -3 6 -2 10 2 10 8 0 37 107 38
140 0 8 3 17 7 20 3 3 9 21 11 40 3 19 6 36 7 38 3 3 2 -1 24 95 10 42 21 79
25 81 4 3 71 6 150 7 l143 2 10 26 c12 30 27 90 35 141 3 19 10 41 15 47 6 7
8 20 4 28 -3 8 -1 15 5 15 6 0 9 6 7 12 -3 7 1 33 9 57 7 24 11 47 8 50 -6 5
-973 8 -1011 3z"/>
<path d="M4918 2650 c-15 -3 -38 -14 -51 -26 -13 -12 -52 -40 -85 -63 -34 -23
-62 -46 -62 -52 0 -6 -4 -8 -9 -5 -5 3 -20 -6 -34 -20 -23 -22 -40 -75 -61
-184 -2 -14 -6 -34 -9 -45 -3 -11 -12 -47 -20 -80 -8 -33 -22 -96 -31 -140
-10 -44 -20 -91 -23 -105 -3 -14 -8 -34 -10 -45 -2 -11 -9 -38 -15 -60 -15
-50 -12 -40 -28 -110 -8 -33 -13 -64 -12 -68 1 -4 -2 -16 -7 -25 -5 -9 -12
-30 -15 -47 -3 -16 -12 -61 -21 -100 -8 -38 -17 -79 -20 -90 -2 -11 -11 -47
-19 -81 -16 -63 -23 -96 -33 -151 l-6 -33 202 0 c171 0 201 2 202 15 1 8 2 18
3 23 1 4 6 23 11 42 4 19 9 42 10 50 0 9 4 20 7 25 7 13 42 168 40 178 -1 4 3
7 9 7 5 0 8 3 6 8 -3 4 -1 16 3 28 8 21 39 23 199 15 9 -1 11 -9 6 -28 -4 -16
-9 -39 -11 -53 -3 -14 -7 -36 -9 -50 -3 -14 -7 -34 -9 -45 -2 -11 -9 -38 -14
-60 -10 -39 -20 -89 -25 -130 -2 -19 5 -20 200 -23 l202 -2 10 37 c20 78 51
209 55 228 4 30 37 167 43 185 3 8 7 24 8 36 2 11 8 38 14 60 5 21 13 54 16
73 3 19 8 37 10 41 2 3 6 19 9 35 3 15 16 73 30 129 13 56 32 137 41 181 22
103 21 96 28 125 4 14 9 39 12 55 4 17 7 35 9 40 1 6 6 28 11 50 4 22 12 45
17 52 11 14 -3 34 -124 167 l-37 41 -293 0 c-161 1 -305 -2 -320 -5z m307
-389 c3 -5 1 -29 -4 -53 -6 -24 -13 -56 -16 -73 -3 -16 -7 -34 -9 -40 -1 -5
-7 -32 -11 -60 -10 -57 -12 -64 -15 -67 -1 -2 -4 -16 -6 -33 -3 -16 -11 -34
-18 -40 -14 -11 -177 -12 -195 -1 -6 4 -9 12 -6 17 8 11 13 36 30 129 2 14 13
61 24 105 11 44 23 90 26 103 5 21 10 22 100 22 51 0 96 -4 100 -9z"/>
</g>
</svg>
